<svg width="32" height="32" viewBox="0 0 32 32" fill="none" xmlns="http://www.w3.org/2000/svg">
<path d="M6.6665 9.3335H25.0532C25.4257 9.33351 25.7942 9.41159 26.1347 9.5627C26.4752 9.71382 26.7803 9.93461 27.0303 10.2108C27.2803 10.4871 27.4696 10.8126 27.5861 11.1665C27.7026 11.5204 27.7436 11.8948 27.7065 12.2655L26.9065 20.2655C26.8407 20.9235 26.5328 21.5336 26.0425 21.9773C25.5522 22.4211 24.9145 22.6668 24.2532 22.6668H11.5198C10.9031 22.6671 10.3054 22.4536 9.82843 22.0626C9.35145 21.6717 9.02471 21.1276 8.90384 20.5228L6.6665 9.3335Z" stroke="#454F5B" stroke-width="2" stroke-linecap="round" stroke-linejoin="round"/>
<path d="M6.6665 9.33333L5.5865 5.00933C5.51427 4.721 5.34777 4.46508 5.11345 4.28221C4.87912 4.09934 4.59041 4.00001 4.29317 4H2.6665" stroke="#454F5B" stroke-width="2" stroke-linecap="round" stroke-linejoin="round"/>
<path d="M10.6665 28H13.3332" stroke="#454F5B" stroke-width="2" stroke-linecap="round" stroke-linejoin="round"/>
<path d="M21.3335 28H24.0002" stroke="#454F5B" stroke-width="2" stroke-linecap="round" stroke-linejoin="round"/>
</svg>
