<svg width="20" height="20" viewBox="0 0 20 20" fill="none" xmlns="http://www.w3.org/2000/svg">
<path d="M16.3088 8.13344C16.3083 8.13313 16.308 8.13273 16.3077 8.13242L10.8682 2.69313C10.6364 2.46117 10.3281 2.3335 10.0002 2.3335C9.67234 2.3335 9.36409 2.46117 9.13213 2.69313L3.69548 8.12967C3.69365 8.1315 3.69172 8.13344 3.68999 8.13527C3.21387 8.61414 3.21468 9.39109 3.69233 9.86874C3.91055 10.0871 4.19867 10.2134 4.50683 10.2267C4.51944 10.228 4.53206 10.2286 4.54477 10.2286H4.76147V14.2315C4.76147 15.0237 5.40607 15.6682 6.19828 15.6682H8.32638C8.54217 15.6682 8.71705 15.4932 8.71705 15.2775V12.1392C8.71705 11.7777 9.01117 11.4837 9.37263 11.4837H10.6278C10.9893 11.4837 11.2833 11.7777 11.2833 12.1392V15.2775C11.2833 15.4932 11.4582 15.6682 11.674 15.6682H13.8021C14.5944 15.6682 15.2389 15.0237 15.2389 14.2315V10.2286H15.4399C15.7677 10.2286 16.076 10.1009 16.308 9.86884C16.7862 9.39048 16.7864 8.6121 16.3088 8.13344ZM15.7555 9.31642C15.6712 9.40076 15.5591 9.44725 15.4399 9.44725H14.8482C14.6325 9.44725 14.4576 9.62213 14.4576 9.83791V14.2315C14.4576 14.5928 14.1636 14.8868 13.8021 14.8868H12.0647V12.1392C12.0647 11.347 11.4202 10.7024 10.6278 10.7024H9.37263C8.58032 10.7024 7.93572 11.347 7.93572 12.1392V14.8868H6.19828C5.83692 14.8868 5.5428 14.5928 5.5428 14.2315V9.83791C5.5428 9.62213 5.36792 9.44725 5.15213 9.44725H4.57061C4.56451 9.44684 4.55851 9.44654 4.5523 9.44644C4.43592 9.4444 4.32675 9.39821 4.24496 9.31632C4.07099 9.14235 4.07099 8.85922 4.24496 8.68515C4.24486 8.68525 4.24506 8.68515 4.24496 8.68515L9.68476 3.24555C9.76899 3.16122 9.881 3.11482 10.0002 3.11482C10.1194 3.11482 10.2314 3.16122 10.3157 3.24555L15.7538 8.68352C15.7546 8.68434 15.7555 8.68515 15.7563 8.68596C15.9294 8.86024 15.9291 9.14276 15.7555 9.31642Z" fill="#161C24"/>
<path d="M15.7555 9.31642C15.6712 9.40076 15.5591 9.44725 15.4399 9.44725H14.8482C14.6325 9.44725 14.4576 9.62213 14.4576 9.83791V14.2315C14.4576 14.5928 14.1636 14.8868 13.8021 14.8868H12.0647V12.1392C12.0647 11.347 11.4202 10.7024 10.6278 10.7024H9.37263C8.58032 10.7024 7.93572 11.347 7.93572 12.1392V14.8868H6.19828C5.83692 14.8868 5.5428 14.5928 5.5428 14.2315V9.83791C5.5428 9.62213 5.36792 9.44725 5.15213 9.44725H4.57061C4.56451 9.44684 4.55851 9.44654 4.5523 9.44644C4.43592 9.4444 4.32675 9.39821 4.24496 9.31632C4.07099 9.14235 4.07099 8.85922 4.24496 8.68515L9.68476 3.24555C9.76899 3.16122 9.881 3.11482 10.0002 3.11482C10.1194 3.11482 10.2314 3.16122 10.3157 3.24555L15.7538 8.68352L15.7563 8.68596C15.9294 8.86024 15.9291 9.14276 15.7555 9.31642Z" fill="#161C24"/>
</svg>
