<svg width="82" height="82" viewBox="0 0 82 82" fill="none" xmlns="http://www.w3.org/2000/svg">
<g clip-path="url(#clip0_658_211)">
<path d="M80.9843 43.4787C80.1423 41.927 80.1423 40.074 80.9839 38.5219C82.912 34.9661 82.031 30.5364 78.8889 27.9891C77.5175 26.8773 76.8084 25.1652 76.9917 23.4094C77.4125 19.3865 74.9033 15.6312 71.0256 14.4801C69.3331 13.9779 68.0229 12.6675 67.5204 10.9751C66.3694 7.0976 62.6142 4.58748 58.5913 5.00885C56.8345 5.19239 55.1231 4.48322 54.0113 3.1118C51.464 -0.0306091 47.0343 -0.911785 43.4785 1.01633C41.9265 1.85779 40.0736 1.85779 38.5215 1.01633C34.9661 -0.911625 30.5363 -0.0307695 27.9886 3.11148C26.8771 4.4829 25.1636 5.19255 23.4089 5.00853C19.3858 4.58748 15.6307 7.09712 14.4796 10.9748C13.9774 12.6672 12.6671 13.9776 10.9746 14.4798C7.09693 15.6308 4.58762 19.386 5.00818 23.409C5.19172 25.1648 4.48271 26.8768 3.11114 27.9886C-0.0307928 30.5359 -0.911969 34.9656 1.01614 38.5214C1.85776 40.0733 1.85776 41.9265 1.01614 43.4784C-0.911969 47.0342 -0.0309529 51.4639 3.11114 54.0112C4.48255 55.123 5.19172 56.835 5.00834 58.5908C4.58762 62.6138 7.09677 66.3691 10.9746 67.5201C12.6671 68.0224 13.9774 69.3328 14.4798 71.0252C15.6308 74.9028 19.3857 77.4128 23.4089 76.9914C25.166 76.8079 26.8771 77.5171 27.9889 78.8885C30.536 82.0306 34.9659 82.9116 38.5217 80.9835C40.0738 80.142 41.9266 80.142 43.4787 80.9835C44.743 81.6689 46.1172 81.9993 47.4786 81.9993C49.9461 81.9993 52.3697 80.9133 54.0116 78.8885C55.1231 77.5171 56.8369 76.8082 58.5913 76.9914C58.886 77.0222 59.1787 77.0374 59.4696 77.0374C63.1498 77.0372 66.4538 74.6189 67.5206 71.025C68.023 69.3326 69.3331 68.0222 71.0258 67.5198C74.9035 66.3688 77.4128 62.6136 76.9921 58.5907C76.8085 56.8349 77.5175 55.1228 78.8891 54.011C82.0312 51.4641 82.9124 47.0345 80.9843 43.4787ZM78.1681 45.006C79.3612 47.2062 78.8161 49.9472 76.8716 51.5236C74.6555 53.3204 73.5095 56.0871 73.8061 58.9248C74.0663 61.4141 72.5136 63.7379 70.114 64.4501C67.379 65.2619 65.2615 67.3795 64.4496 70.1147C63.7376 72.514 61.4163 74.0679 58.9243 73.8066C56.0866 73.5101 53.3201 74.656 51.5233 76.8723C49.9469 78.8167 47.2058 79.3617 45.0055 78.1687C43.7513 77.4885 42.376 77.1487 41.0001 77.1487C39.6245 77.1487 38.2486 77.4889 36.9948 78.1687C34.7946 79.3621 32.0533 78.8167 30.4771 76.8724C28.6805 74.6562 25.9141 73.5098 23.0758 73.8067C20.5872 74.0676 18.2628 72.5144 17.5505 70.1148C16.7386 67.3797 14.621 65.2621 11.8861 64.4503C9.48661 63.7381 7.93375 61.4142 8.194 58.9249C8.49077 56.0874 7.34453 53.3207 5.12846 51.524C3.18401 49.9477 2.63884 47.2066 3.832 45.0061C5.19188 42.4981 5.19188 39.5035 3.832 36.9951C2.63884 34.7949 3.18401 32.0538 5.12846 30.4774C7.34453 28.6806 8.49061 25.914 8.194 23.0763C7.93375 20.587 9.48645 18.2632 11.8861 17.551C14.621 16.7391 16.7386 14.6215 17.5505 11.8863C18.2625 9.48696 20.5851 7.93345 23.0758 8.19434C25.9135 8.49095 28.6801 7.34488 30.4768 5.12864C32.0532 3.18419 34.7944 2.63934 36.9946 3.83218C39.5027 5.19223 42.4971 5.19223 45.0055 3.83218C47.2057 2.63886 49.9469 3.18419 51.5231 5.12848C53.3198 7.34472 56.0849 8.49079 58.9244 8.19418C61.4134 7.93441 63.7376 9.48648 64.4496 11.8861C65.2615 14.6212 67.379 16.7388 70.114 17.5505C72.5135 18.2627 74.0663 20.5865 73.8061 23.0758C73.5093 25.9133 74.6555 28.68 76.8716 30.4768C78.8161 32.053 79.3612 34.7941 78.1681 36.9946C76.8082 39.503 76.8082 42.4978 78.1681 45.006Z" fill="#4295E4"/>
<path d="M56.313 12.4929C50.3163 9.26893 43.2808 8.01459 36.5034 8.96079C29.4958 9.93902 23.1402 13.1077 18.1236 18.1243C13.3542 22.8937 10.2367 28.9179 9.10876 35.5453C8.0056 42.0262 8.87012 48.5948 11.6088 54.5411C11.879 55.1274 12.4586 55.473 13.0644 55.473C13.2887 55.473 13.5164 55.4258 13.7336 55.3258C14.5371 54.9557 14.8883 54.0046 14.5182 53.2011C9.43659 42.1681 11.7957 28.982 20.3885 20.389C29.4155 11.3625 43.564 9.27534 54.796 15.3142C55.575 15.733 56.5464 15.441 56.965 14.662C57.384 13.8829 57.092 12.9117 56.313 12.4929Z" fill="#4295E4"/>
<path d="M20.4567 61.6792L20.3887 61.6111C19.7631 60.9857 18.7493 60.9857 18.1236 61.6111C17.4982 62.2366 17.4982 63.2507 18.1236 63.8762L18.1918 63.9443C18.5046 64.2571 18.9144 64.4134 19.3243 64.4134C19.7341 64.4134 20.144 64.2571 20.4567 63.9443C21.0821 63.3189 21.0821 62.3048 20.4567 61.6792Z" fill="#4295E4"/>
<path d="M69.3925 25.4755C68.9676 24.6994 67.9939 24.415 67.2187 24.8395C66.4428 25.2643 66.158 26.2375 66.5826 27.0133C72.7531 38.2867 70.7087 52.5139 61.6112 61.6116C53.0437 70.1791 40.3429 72.5638 29.2546 67.6871C28.4447 67.3311 27.5 67.6986 27.1438 68.5084C26.7876 69.318 27.1553 70.263 27.9649 70.6192C32.0934 72.4351 36.5086 73.3571 40.9697 73.3571C42.8855 73.3571 44.8099 73.187 46.7239 72.8447C53.2447 71.6783 59.1757 68.5772 63.8764 63.8767C68.9228 58.8303 72.0971 52.4344 73.0558 45.3805C73.9832 38.5553 72.6823 31.4863 69.3925 25.4755Z" fill="#4295E4"/>
<path d="M63.918 18.1656L63.8762 18.1238C63.2506 17.4984 62.2369 17.4984 61.6111 18.1238C60.9857 18.7492 60.9857 19.7634 61.6111 20.3889L61.6531 20.4307C61.9659 20.7435 62.3757 20.8998 62.7856 20.8998C63.1954 20.8998 63.6052 20.7435 63.918 20.4307C64.5434 19.8053 64.5434 18.7912 63.918 18.1656Z" fill="#4295E4"/>
<path d="M61.3399 42.6015C61.3399 40.7856 60.2544 39.2195 58.6986 38.5151C58.9091 37.996 59.026 37.4294 59.026 36.8359C59.026 34.3632 57.0143 32.3515 54.5416 32.3515H47.5769L48.0342 30.9936C48.7565 28.8494 48.5838 26.5608 47.5484 24.5491C46.5129 22.5373 44.7505 21.0671 42.586 20.409C41.7707 20.161 40.9041 20.5951 40.614 21.3964L38.1625 28.1719C37.5261 29.9309 36.2708 31.3923 34.6279 32.287L32.6809 33.3472C32.034 32.7311 31.1597 32.3515 30.198 32.3515H23.3025C21.3156 32.3515 19.699 33.968 19.699 35.955V55.0135C19.699 57.0006 21.3156 58.617 23.3025 58.617H30.198C31.3002 58.6172 32.2877 58.1194 32.9493 57.3374L33.681 57.6244C35.3609 58.2833 37.1277 58.6174 38.9325 58.6174H52.5314C55.004 58.6174 57.0157 56.6056 57.0157 54.133C57.0157 53.5287 56.895 52.9525 56.6773 52.4259C58.1999 51.7083 59.2566 50.1592 59.2566 48.3674C59.2566 47.7383 59.1259 47.1395 58.891 46.5956C60.3429 45.8522 61.3399 44.3416 61.3399 42.6015ZM30.5985 55.0135C30.5985 55.2342 30.419 55.4139 30.1981 55.4139H23.3026C23.0818 55.4139 22.9022 55.2344 22.9022 55.0135V35.955C22.9022 35.7343 23.0818 35.5546 23.3026 35.5546H30.1981C30.3609 35.5546 30.5005 35.6525 30.5631 35.7921C30.5718 35.8343 30.5827 35.8761 30.5948 35.9177C30.596 35.9302 30.5985 35.9422 30.5985 35.955V55.0135ZM56.8556 43.883H49.6484C48.764 43.883 48.0468 44.6001 48.0468 45.4846C48.0468 46.3691 48.764 47.0862 49.6484 47.0862H54.7721C55.4785 47.0862 56.0533 47.661 56.0533 48.3674C56.0533 49.0739 55.4785 49.6486 54.7721 49.6486H49.6484C48.764 49.6486 48.0468 50.3657 48.0468 51.2502C48.0468 52.1347 48.764 52.8518 49.6484 52.8518H52.5312C53.2376 52.8518 53.8124 53.4266 53.8124 54.133C53.8124 54.8395 53.2376 55.4143 52.5312 55.4143H51.3461H38.9324C37.5296 55.4143 36.1562 55.1545 34.8505 54.6425L33.8015 54.231V36.3842L36.1598 35.1001C38.4907 33.8309 40.2718 31.7575 41.1747 29.2618L43.0322 24.1282C43.7305 24.6 44.303 25.2425 44.7007 26.0151C45.3364 27.2499 45.4422 28.6548 44.9989 29.9711L43.8299 33.4419C43.6653 33.9307 43.7462 34.4686 44.047 34.8874C44.3477 35.3062 44.8319 35.5546 45.3476 35.5546H54.5416C55.2481 35.5546 55.8229 36.1294 55.8229 36.8359C55.8229 37.5423 55.2481 38.1171 54.5416 38.1171H49.6484C48.764 38.1171 48.0468 38.8341 48.0468 39.7187C48.0468 40.6032 48.764 41.3202 49.6484 41.3202L56.8556 41.3204C57.562 41.3204 58.1368 41.8952 58.1368 42.6016C58.1368 43.3081 57.562 43.883 56.8556 43.883Z" fill="#4295E4"/>
</g>
<defs>
<clipPath id="clip0_658_211">
<rect width="82" height="82" fill="white"/>
</clipPath>
</defs>
</svg>
