<svg width="51" height="42" viewBox="0 0 51 42" fill="none" xmlns="http://www.w3.org/2000/svg">
<path d="M18.3452 13.0722H22.4V21.3728C20.1254 23.9242 16.8618 25.2 12.6093 25.2C9.01603 25.2 6.01618 24.0071 3.60971 21.6213C1.20324 19.2355 0 16.2532 0 12.6745C0 9.09585 1.21972 6.09703 3.65916 3.6781C6.13156 1.22603 9.11493 0 12.6093 0C16.1036 0 19.0045 1.01065 21.3121 3.03195L19.1364 6.16331C17.4552 4.73846 15.3948 4.02603 12.9554 4.02603C10.483 4.02603 8.40617 4.83786 6.72494 6.46153C5.07667 8.05206 4.25254 10.1231 4.25254 12.6745C4.25254 15.226 5.0437 17.297 6.62604 18.8876C8.24135 20.445 10.2358 21.2236 12.6093 21.2236C14.9168 21.2236 16.8288 20.7266 18.3452 19.7325V13.0722Z" fill="#161C24"/>
<line x1="27.1001" y1="2.18557e-08" x2="27.1001" y2="16.8" stroke="#161C24"/>
<line x1="27.1001" y1="16.7998" x2="27.1001" y2="33.5998" stroke="#4295E4"/>
<path d="M41.4194 41.9998C37.4863 41.9998 33.9465 40.7748 30.8 38.3248L33.291 34.3217C36.0879 36.4654 38.8411 37.5373 41.5505 37.5373C42.6868 37.5373 43.5826 37.2748 44.2382 36.7498C44.9374 36.181 45.287 35.481 45.287 34.6498C45.287 33.4248 43.6701 32.331 40.4362 31.3685C40.3488 31.3248 40.2395 31.281 40.1084 31.2373C40.021 31.1935 39.9554 31.1717 39.9117 31.1717C34.8424 29.8154 32.3077 27.5185 32.3077 24.281C32.3077 22.006 33.1599 20.1904 34.8643 18.8342C36.6123 17.4779 38.9066 16.7998 41.7472 16.7998C44.5441 16.7998 47.2098 17.6311 49.7445 19.2936L47.8435 23.0998C45.877 21.7873 43.7138 21.1311 41.3539 21.1311C38.6007 21.1311 37.2241 22.006 37.2241 23.756C37.2241 24.4998 37.4863 25.0467 38.0107 25.3967C38.5789 25.7029 39.4966 26.0092 40.7639 26.3154C42.6868 26.8404 44.3037 27.3654 45.6148 27.8904C46.4888 28.2842 47.2535 28.6998 47.9091 29.1373C49.5697 30.2748 50.4 32.0029 50.4 34.3217C50.4 36.5967 49.5479 38.456 47.8435 39.8998C46.1829 41.2998 44.0415 41.9998 41.4194 41.9998Z" fill="#4295E4"/>
</svg>
