<svg width="92" height="92" viewBox="0 0 92 92" fill="none" xmlns="http://www.w3.org/2000/svg">
<g clip-path="url(#clip0_628_930)">
<path d="M12.8402 52.6289C12.8402 28.4073 32.4831 8.76444 56.7047 8.76444C62.5304 8.76194 68.2985 9.91789 73.6729 12.1671C65.8587 5.80059 56.0853 2.33105 46.006 2.34526C21.7845 2.34526 2.1416 21.9881 2.1416 46.2097C2.14411 63.8817 12.7441 79.8293 29.0378 86.6723C18.7797 78.3491 12.8269 65.8392 12.8402 52.6289Z" fill="#22B186" fill-opacity="0.1"/>
<path d="M46.0054 0.205698C27.3982 0.202355 10.6222 11.41 3.50174 28.6014C-3.61787 45.7928 0.320571 65.5803 13.4816 78.7337C31.4444 96.6966 60.5673 96.6966 78.5293 78.7337C96.4922 60.7717 96.4922 31.6488 78.5293 13.686C69.9228 5.03012 58.2119 0.176444 46.0054 0.205698ZM46.0054 87.9346C23.0034 87.9346 4.28074 69.2119 4.28074 46.2099C4.28074 23.2078 23.0034 4.48515 46.0054 4.48515C69.0075 4.48515 87.7301 23.2078 87.7301 46.2099C87.7301 69.2119 69.0075 87.9346 46.0054 87.9346Z" fill="#22B186"/>
<path d="M67.873 32.0665L40.2496 58.4704L25.2071 43.4071C24.3738 42.5737 23.0231 42.5737 22.1898 43.4071C21.3573 44.2395 21.3573 45.5903 22.1898 46.4236L38.7301 62.9638C39.1313 63.3684 39.6796 63.5924 40.2496 63.584C40.8021 63.5899 41.3337 63.3742 41.7257 62.9856L70.826 35.1691C71.6702 34.3508 71.6978 33.0051 70.8879 32.1534C70.0771 31.3026 68.7322 31.2633 67.873 32.0665Z" fill="#22B186"/>
</g>
<defs>
<clipPath id="clip0_628_930">
<rect width="92" height="92" fill="white"/>
</clipPath>
</defs>
</svg>
