<svg width="82" height="82" viewBox="0 0 82 82" fill="none" xmlns="http://www.w3.org/2000/svg">
<path d="M71.5578 34.7609C71.3646 34.3918 70.9822 34.1603 70.5655 34.1606H11.4371C11.0205 34.1606 10.6385 34.3919 10.4454 34.7609L3.04807 48.8451C2.76011 49.3931 2.97087 50.0709 3.51909 50.359C3.67989 50.4436 3.85878 50.4876 4.0404 50.4876H10.3185V75.2157C10.3188 75.8347 10.8206 76.3365 11.4396 76.3368H70.5648C71.184 76.3368 71.6859 75.8349 71.6859 75.2157V50.4876H77.964C78.5832 50.4876 79.0851 49.9855 79.085 49.3664C79.085 49.1847 79.0408 49.0058 78.9564 48.8451L71.5578 34.7609ZM12.1148 36.4028H39.1422L32.9281 48.2454H5.89373L12.1148 36.4028ZM12.5562 50.4876H33.6008C34.0176 50.4876 34.4001 50.2565 34.5937 49.8873L39.8776 39.8295V74.0985H12.5562V50.4876ZM69.4437 74.0966H42.1211V39.8276L47.4062 49.8873C47.5995 50.2565 47.9818 50.4878 48.3986 50.4876H69.4437V74.0966ZM49.0718 48.2454L42.8578 36.4028H69.8883L76.1062 48.2454H49.0718Z" fill="#4295E4" stroke="#4295E4" stroke-width="0.5"/>
<path d="M41 30.6622C47.9039 30.6622 53.5005 25.0655 53.5005 18.1616C53.5005 11.2578 47.9039 5.66113 41 5.66113C34.0962 5.66113 28.4995 11.2578 28.4995 18.1616V18.1623C28.5074 25.0628 34.0995 30.6548 41 30.6622ZM41 7.90332C46.6656 7.90332 51.2584 12.4961 51.2584 18.1616C51.2584 23.8272 46.6656 28.42 41 28.42C35.3348 28.42 30.742 23.8275 30.7417 18.1623C30.7481 12.4993 35.3371 7.91005 41 7.90332Z" fill="#4295E4" stroke="#4295E4" stroke-width="0.5"/>
<path d="M42.1398 21.2836H37.0923C36.4731 21.2836 35.9712 21.7855 35.9712 22.4047C35.9712 23.0239 36.4731 23.5258 37.0923 23.5258H42.1372C44.6898 23.4957 46.7347 21.4021 46.7046 18.8496C46.6749 16.3394 44.6473 14.3117 42.1372 14.2822H39.7989L40.5779 13.5032C41.0238 13.0737 41.0371 12.364 40.6076 11.918C40.178 11.4721 39.4684 11.4588 39.0223 11.8884C39.013 11.8973 39.0039 11.9065 38.9948 11.9158L36.3042 14.6064C35.8663 15.0436 35.8658 15.7531 36.3032 16.191C36.3035 16.1913 36.3038 16.1916 36.3042 16.1919L38.9948 18.8826C39.4327 19.3204 40.1425 19.3204 40.5803 18.8826C41.0182 18.4447 41.0182 17.7349 40.5803 17.297L39.8007 16.5174H42.1396C43.4539 16.539 44.5018 17.6218 44.4801 18.936C44.4592 20.2199 43.4234 21.2556 42.1396 21.2766L42.1398 21.2836Z" fill="#4295E4" stroke="#4295E4" stroke-width="0.5"/>
</svg>
