<svg width="26" height="26" viewBox="0 0 26 26" fill="none" xmlns="http://www.w3.org/2000/svg">
<g clip-path="url(#clip0_658_189)">
<path fill-rule="evenodd" clip-rule="evenodd" d="M25.4042 6.44399C25.584 5.85249 25.4042 5.41699 24.5429 5.41699H21.6992C20.9755 5.41699 20.6418 5.79291 20.4609 6.20783C20.4609 6.20783 19.0147 9.67016 16.9661 11.9192C16.3031 12.5713 16.0019 12.7782 15.6401 12.7782C15.4592 12.7782 15.1873 12.5713 15.1873 11.9787V6.44399C15.1873 5.73333 14.9879 5.41699 14.3856 5.41699H9.91358C9.46183 5.41699 9.18992 5.74633 9.18992 6.05941C9.18992 6.73216 10.2148 6.88816 10.3198 8.78183V12.8963C10.3198 13.7987 10.1541 13.9623 9.79225 13.9623C8.82808 13.9623 6.48267 10.4837 5.09058 6.50358C4.82083 5.72899 4.54783 5.41699 3.82092 5.41699H0.975C0.1625 5.41699 0 5.79291 0 6.20783C0 6.94666 0.964167 10.617 4.49042 15.4714C6.84125 18.7864 10.1508 20.5837 13.1658 20.5837C14.9738 20.5837 15.197 20.185 15.197 19.4971V16.9913C15.197 16.1929 15.3682 16.0337 15.9413 16.0337C16.3638 16.0337 17.0863 16.2417 18.7742 17.8396C20.7025 19.7343 21.0199 20.5837 22.1054 20.5837H24.9492C25.7617 20.5837 26.169 20.185 25.935 19.3963C25.6772 18.612 24.7563 17.4734 23.5354 16.1225C22.8724 15.3533 21.8779 14.5246 21.5757 14.1097C21.1543 13.5777 21.2745 13.3405 21.5757 12.8671C21.5757 12.8671 25.0423 8.07224 25.4031 6.44399H25.4042Z" fill="white"/>
</g>
<defs>
<clipPath id="clip0_658_189">
<rect width="26" height="26" fill="white"/>
</clipPath>
</defs>
</svg>
